# xmcd
#
# Track frame offsets: 
#        150
#        14624
#        26266
#        39437
#        52806
#        67069
#        78880
#        92630
#        107548
#        121797
#        132449
#        147535
#        161734
#        177030
#        191680
#        207016
#        219882
#        234129
#        247812
#        259525
#        274067
#        288481
#        303625
#        318042
#        332598
#
# Disc length: 4608 seconds
#
# Revision: 0
# Processed by: cddbd v1.5.2PL0 Copyright (c) Steve Scherf et al.
# Submitted via: ExactAudioCopy v0.95b4
#
DISCID=4e11fe19
DTITLE=Various Artist - The Ultimate Vocal Collection [The Gentlemen]
DYEAR=2006
DGENRE=Vocal
TTITLE0=Astaire Fred/The Way You Look Tonight
TTITLE1=Cole Nat King/Orange Colored Sky
TTITLE2=Martin Dean/Walkin' My Baby Back Home
TTITLE3=Mitchell Guy/Pittsburgh, Pennsylvania
TTITLE4=Sinatra Frank/I'll Be Seeing You
TTITLE5=Jolson Al/Swanee
TTITLE6=Crosby Bing/I Found A Million Dollar Baby (In A Five And Ten C
TTITLE6=ent Store)
TTITLE7=Armstrong Louis/I've Got the World on a String
TTITLE8=Lanza Mario/Beloved
TTITLE9=Como Perry/You must have been a beautiful baby
TTITLE10=Belafonte Harry/Sometimes I feel Like a Motherless Child
TTITLE11=Eddy Nelson/Rose Marie
TTITLE12=Tauber Richard/You are my heart's delight
TTITLE13=Bowlly Al/Easy to Love
TTITLE14=Eckstine Billy/Because You're Mine
TTITLE15=Martin Tony/Fools Rush in (Where Angels Fear to Tread)
TTITLE16=McCormack John/When Irish Eyes are Smiling
TTITLE17=Ink Spots/Don't Get Around Much Anymore
TTITLE18=Trenet Charles/Boum
TTITLE19=Cugat Xavier/Begin the Beguine
TTITLE20=Coward Noel/The Last Time I saw Paris
TTITLE21=Rossi Tino/Marinella
TTITLE22=Powell Dick/The Gold Diggers' Song (We're In The Money)
TTITLE23=Lombardo Trio/It ain't necessarily so
TTITLE24=Rosing Val/Teddy Bears' Picnic
EXTD=
EXTT0=
EXTT1=
EXTT2=
EXTT3=
EXTT4=
EXTT5=
EXTT6=
EXTT7=
EXTT8=
EXTT9=
EXTT10=
EXTT11=
EXTT12=
EXTT13=
EXTT14=
EXTT15=
EXTT16=
EXTT17=
EXTT18=
EXTT19=
EXTT20=
EXTT21=
EXTT22=
EXTT23=
EXTT24=
PLAYORDER=
